<svg xmlns="http://www.w3.org/2000/svg" xmlns:xlink="http://www.w3.org/1999/xlink" viewBox="0 0 1007 321.3"><defs><path id="a" d="M-1.2-187.8h1009.4c5.2 0 9.4 4.2 9.4 9.4V509H-10.6v-687.4c0-5.2 4.2-9.4 9.4-9.4z"></path></defs><clipPath id="b"><use xlink:href="#a"></use></clipPath><g clip-path="url(#b)"><linearGradient id="c" gradientUnits="userSpaceOnUse" x1="180.684" y1="-23.596" x2="182.314" y2="-21.896" gradientTransform="matrix(544.27 0 0 405.41 -98331.14 9376.757)"><stop offset="0" stop-color="#b82669"></stop><stop offset="1" stop-color="#22358c"></stop></linearGradient><path d="M-9.2 577.8s1028.8-2.1 1027.8 0l-1-765.6H-9.2v765.6z" fill="url(#c)"></path><path d="M1309.9 451.2c-15.5-5.5-1433.2 0-1433.2 0 152.4-59.8 595.2-224.3 644.8-242.9 71.7-27 172.3-57.8 315.9-4 82.1 30.7 309.2 116.6 472.6 178.5-2.4 5 1.6 69-.1 68.4z" fill="#372652" opacity=".37"></path><g opacity=".69"><linearGradient id="d" gradientUnits="userSpaceOnUse" x1="181.557" y1="-19.793" x2="181.633" y2="-18.244" gradientTransform="matrix(664.56 0 0 99.42 -120186 1924.558)"><stop offset="0" stop-color="#b82669"></stop><stop offset=".51" stop-color="#602f7d"></stop><stop offset="1" stop-color="#22358c"></stop></linearGradient><path d="M1135.6-104.8c-14.3 4-1359.5 0-1359.5 0-1.1-1.8 13.1 43.1 0 39.9C-46.2-11.2 205.5 63.3 240.9 73.8c66.2 19.8 159.2 42.5 291.7 2.9 124.1-36.9 606.9-182.7 603-181.5z" fill="url(#d)"></path></g></g></svg>