<svg xmlns="http://www.w3.org/2000/svg" xmlns:xlink="http://www.w3.org/1999/xlink" viewBox="0 0 789 590"><defs><style> .cls-1, .cls-2, .cls-46 { fill: #fff; } .cls-1 { stroke: #707070; } .cls-2 { stroke: #007db8; stroke-width: 2px; } .cls-3 { clip-path: url(#clip-path); } .cls-4 { opacity: 0.04; clip-path: url(#clip-path-2); } .cls-5 { opacity: 0.898; } .cls-6 { fill: #372652; } .cls-14, .cls-36, .cls-39, .cls-7, .cls-9 { fill: none; } .cls-37, .cls-7 { opacity: 0.5; } .cls-8 { fill: url(#linear-gradient); } .cls-9 { stroke: #ffcfa9; } .cls-14, .cls-39, .cls-9 { stroke-miterlimit: 10; } .cls-10 { fill: #4c2502; } .cls-11 { fill: #72d6c3; } .cls-12 { fill: #56b7a4; } .cls-13 { fill: #81ead6; } .cls-14 { stroke: #590637; } .cls-15 { fill: #263238; } .cls-16 { fill: #e5b28f; } .cls-17 { fill: #007db8; } .cls-18, .cls-19 { fill: #414046; } .cls-18, .cls-49 { opacity: 0.1; } .cls-20 { fill: #1e1e1e; } .cls-21 { fill: #b6c6ed; } .cls-22 { fill: rgba(0,125,184,0.49); } .cls-23 { fill: #d3a07d; opacity: 0.6; } .cls-24 { fill: #f7941e; } .cls-25 { fill: #1b8e8e; } .cls-26 { fill: #2aa09d; } .cls-27 { fill: #3e7089; } .cls-28 { fill: #f15a29; } .cls-29 { fill: #f47d22; } .cls-30 { fill: #2d556e; } .cls-31 { fill: #e5544a; } .cls-32 { fill: #f47b23; } .cls-33 { fill: #254759; } .cls-34 { fill: #303d42; } .cls-35, .cls-38 { opacity: 0.45; } .cls-36 { opacity: 0.75; } .cls-37 { fill: #b21b87; } .cls-38 { fill: #22358c; } .cls-39 { stroke: #9b9b9b; } .cls-40 { fill: #331538; } .cls-41 { fill: #61246b; } .cls-42 { fill: #3b1847; } .cls-43 { fill: #300523; } .cls-44 { fill: #56235d; } .cls-45 { fill: #d6d6d6; } .cls-47 { fill: #3a6493; } .cls-48, .cls-50 { fill: #162840; } .cls-48 { opacity: 0.34; } .cls-49 { fill: #1b304b; } .cls-50 { opacity: 0.2; } </style><clipPath id="clip-path"><rect id="Rectangle_1518" data-name="Rectangle 1518" class="cls-1" width="789" height="590" transform="translate(-143 2889)"></rect></clipPath><clipPath id="clip-path-2"><rect id="Rectangle_1259" data-name="Rectangle 1259" class="cls-2" width="1440" height="2026" transform="translate(-22494 -16950)"></rect></clipPath><linearGradient id="linear-gradient" y1="0.5" x2="1" y2="0.5" gradientUnits="objectBoundingBox"><stop offset="0" stop-color="#b82669"></stop><stop offset="1" stop-color="#22358c"></stop></linearGradient></defs><g id="home_illustration_2" class="cls-3" transform="translate(143 -2889)"><g id="Group_634" data-name="Group 634" class="cls-5" transform="translate(-142.602 2891.336)"><path id="Path_787" data-name="Path 787" class="cls-6" d="M756.214,514.566,598.47,423.482h0L559.9,401.23h0L367.791,290.307c-11.633-6.709-30.554-6.709-42.187,0L16.15,468.952c-11.633,6.709-11.633,17.618,0,24.376L232.589,618.3a.047.047,0,0,0-.048.048l72.549,41.9a.047.047,0,0,0,.048-.048l99.435,57.392c11.633,6.709,30.554,6.709,42.187,0L756.214,538.942C767.847,532.184,767.847,521.275,756.214,514.566Z" transform="translate(-3.854 -140.58)"></path><path id="Path_788" data-name="Path 788" class="cls-7" d="M759.963,496.751,603.136,405.474h0l-38.374-22.3h0L373.712,271.961c-11.585-6.758-30.506-7.047-42.332-.628L18.4,440.952c-11.778,6.372-11.971,17.039-.386,23.748L233.249,589.959a.047.047,0,0,0-.048.048L305.363,632a.047.047,0,0,0,.048-.048l98.855,57.537c11.585,6.758,30.506,7.047,42.332.628L757.308,515.045C769.086,508.674,771.548,503.509,759.963,496.751Z" transform="translate(-4.9 -130.971)"></path><path id="Path_789" data-name="Path 789" class="cls-8" d="M751.153,453.935,593.844,363.092c-.29-.193-.579-.338-.869-.531L347.912,221.132c-9.219-5.31-24.183-5.31-33.4,0l-152.145,87.85h0L131.81,326.6h0L6.89,398.715c-9.219,5.31-9.219,13.95,0,19.308L410.131,650.873c9.219,5.31,24.183,5.31,33.4,0L522.26,605.4h.048L579.8,572.243l-.048-.048,171.4-98.952C760.373,467.933,760.373,459.293,751.153,453.935Z" transform="translate(0 -105.339)"></path><g id="Group_596" data-name="Group 596" transform="translate(72.246 99.708)"><g id="Group_579" data-name="Group 579" transform="translate(193.183)"><path id="Path_790" data-name="Path 790" class="cls-9" d="M554.9,269.9" transform="translate(-552.496 -232.335)"></path><g id="Group_566" data-name="Group 566" transform="translate(1.246 71.529)"><path id="Path_791" data-name="Path 791" class="cls-10" d="M560.965,347.747c1.593.145-2.22,9.9-2.462,10.088-.29.241-1.641-.821-3.524-2.076-.772-4.73-1.931-10.185-1.979-15.06C553.821,341.038,559.468,347.554,560.965,347.747Z" transform="translate(-552.759 -340.489)"></path><g id="Group_565" data-name="Group 565"><path id="Path_792" data-name="Path 792" class="cls-10" d="M560.657,347.666c1.207.386-1.4,7-1.738,7.771-.483,1.255-.386,2.317-1.786,1.545-2.7-1.593-2.7-4.006-3.186-6.854-.483-2.8-.676-5.6-1.062-8.447-.145-1.158-.193-1.014.579-.338.531.483,1.062,1.014,1.545,1.545,1.5,1.448,3.524,4.3,5.647,4.779.241.048.338-.29.1-.338-1.786-.386-3.524-2.751-4.73-3.958a17.794,17.794,0,0,0-3.234-3.089c-.1-.048-.29,0-.29.145a59.488,59.488,0,0,0,.676,7.192c.193,1.255.386,2.558.627,3.813.145.965.145,3.331.676,4.1.531.724,3.041,2.751,3.958,1.979.434-.338.724-1.689.869-2.172a40.8,40.8,0,0,0,1.351-4.1c.193-.676,1.255-3.524.048-3.91C560.513,347.231,560.416,347.618,560.657,347.666Z" transform="translate(-552.5 -340.262)"></path></g></g><g id="Group_567" data-name="Group 567" transform="translate(1.424 16.134)"><path id="Path_793" data-name="Path 793" class="cls-11" d="M559.256,246.063c-2.7-3.958-4.537-21.576-5.02-16.363-1.738,18.777-1.5,55.992-1.014,56.716.434.628,10.04,6.709,10.668,7.144,12.984,8.688,13.757,9.219,28.334,17.618,2.124,1.255,7.578,5.5,10.619,6.13,0,0,1.979-9.412.724-14.626s-9.461-18.922-11.729-24.038-2.558-9.026-1.4-10.04c1.158-.965-24.473-13.8-27.9-17.811a34.033,34.033,0,0,1-4.3-6.613c-3.137-6.275-2.269-14.626,2.993-18.68" transform="translate(-552.87 -225.5)"></path></g><g id="Group_568" data-name="Group 568" transform="translate(55.688 61.149)"><path id="Path_794" data-name="Path 794" class="cls-12" d="M710.812,339.2a72.033,72.033,0,0,0-7.337,4.006c-2.9,1.834-.338.193-12.791,7.627-5.84,3.475-14.143,9.557-20.514,11.971-1.738.627-5.937-21.335-4.634-22.011s36.154-20.563,39.339-21.962S712.6,338.232,710.812,339.2Z" transform="translate(-665.289 -318.76)"></path></g><path id="Path_795" data-name="Path 795" class="cls-9" d="M761.9,398.9" transform="translate(-659.579 -299.068)"></path><g id="Group_569" data-name="Group 569" transform="translate(14.761 43.195)"><path id="Path_796" data-name="Path 796" class="cls-11" d="M662.413,299.972c-14.577-7.482-29.686-10.812-42.96-18.294-.917-.531-3.813.965-4.875.917a6.5,6.5,0,0,0-3.524,1.448c-7.868,5.454-23.459,13.129-30.554,19.549,11.005,4.972,27.562,17.86,38.953,21.818Z" transform="translate(-580.5 -281.564)"></path></g><g id="Group_571" data-name="Group 571" transform="translate(51.78 101.618)"><path id="Path_797" data-name="Path 797" class="cls-10" d="M657.493,406.728c-.145,3.041,2.124,10.137,2.414,10.426.241.193,2.944.483,3.234.1.29-.338,2.7-15.012,2.172-14.095Z" transform="translate(-657.344 -402.866)"></path><g id="Group_570" data-name="Group 570"><path id="Path_798" data-name="Path 798" class="cls-10" d="M657.2,406.462a21.02,21.02,0,0,0,.82,5.454c.338,1.3.579,3.765,1.5,4.779.676.772,3.041,1.062,3.765.193.434-.531.434-2.027.531-2.655.29-1.641.579-3.331.869-5.02.241-1.4.434-2.8.628-4.2a6.043,6.043,0,0,0,.193-2.269q0-.072-.145-.145h0a.29.29,0,0,0-.193.048c-.628.821-3.041,1.4-3.91,1.834-1.3.579-2.606,1.207-3.91,1.786-.193.1-.048.386.193.29,1.11-.483,2.172-1.014,3.282-1.5,1.255-.579,2.944-1.786,4.3-1.979.531-.1,0-.29.048-.1a4.456,4.456,0,0,1-.145,1.352c-.193,1.738-.483,3.475-.772,5.213-.29,1.689-.531,3.379-.869,5.068-.29,1.689-.193,2.413-2.22,2.22-1.834-.145-1.883-1.882-2.317-3.475a24.828,24.828,0,0,1-1.255-7A.209.209,0,0,0,657.2,406.462Z" transform="translate(-657.192 -402.6)"></path></g></g><g id="Group_573" data-name="Group 573" transform="translate(97.104 78.528)"><path id="Path_799" data-name="Path 799" class="cls-10" d="M751.448,358.768c1.159,4.1,3.089,9.557,3.282,9.8s3.524-1.545,3.717-1.834c.241-.338.772-6.275.772-11.633l-7.82,3.379" transform="translate(-751.25 -354.937)"></path><g id="Group_572" data-name="Group 572"><path id="Path_800" data-name="Path 800" class="cls-10" d="M751.095,358.642c.531,1.931,1.11,3.813,1.786,5.7a18.6,18.6,0,0,0,1.3,3.572c.627.965.772.676,1.931.145,1.352-.676,2.365-.917,2.607-2.414a66.175,66.175,0,0,0,.579-10.716c0-.145-.145-.193-.29-.145-2.607,1.11-5.213,2.269-7.82,3.379-.193.1-.048.386.193.29,1.738-.724,3.475-1.5,5.165-2.22.338-.145,2.172-1.255,2.51-1.062.145.048-.29,5.31-.338,6.034-.1,1.352.145,3.668-.434,4.923-.29.628-2.655,2.317-3.379,2.076-.676-.193-1.159-2.607-1.4-3.282-.724-2.076-1.4-4.2-1.979-6.372-.145-.241-.483-.145-.435.1Z" transform="translate(-751.09 -354.762)"></path></g></g><g id="Group_574" data-name="Group 574" transform="translate(47.969 1.072)"><path id="Path_801" data-name="Path 801" class="cls-13" d="M703.747,226.012c-2.462.627-3.234.531-5.5,2.8-1.159,1.158-1.931,1.5-2.414,3.041-2.655,8.3-1.738,14.577-.772,23.266-3.717-1.641-17.474-8.351-20.128-9.7-11.633-5.937-13.515-5.31-16.17-7.289-.29-7.868-1.882-13.95-2.607-20.466-.531-4.875-10.04-12.019-5.744-17.329.193-.241.531-6.13.821-6.034,13.274,3.475,55.172,28.672,57.585,33.451Z" transform="translate(-649.298 -194.298)"></path></g><g id="Group_575" data-name="Group 575" transform="translate(0 9.328)"><path id="Path_802" data-name="Path 802" class="cls-13" d="M598.566,259.718c-6.42-6.709-17.184-8.882-23.8-14.143-4.73-3.765-10.474-7.144-14-12.116s-3.862-9.123-2.8-15.108a10.424,10.424,0,0,0,1.786-1.3c1.689-2.269,8.833-5.648,8.833-5.648-4.344.338-14.626,5.792-16.025,10.233-1.255,3.91-4.055,13.612-1.786,16.991a59.93,59.93,0,0,0,8.206,9.606c7.337,7.1,20.177,14.722,29.444,19.018.241-2.172-.434-5.985,1.11-7.53,1.931-1.931,3.138-3.475,5.7-2.558Z" transform="translate(-549.92 -211.4)"></path></g><g id="Group_576" data-name="Group 576" transform="translate(92.927 32.839)"><path id="Path_803" data-name="Path 803" class="cls-12" d="M744.3,299.106c.965,4.972,1.883,7.627,2.51,11.778,2.172-.29,6.034-3.62,8.5-5.213-1.062-14.626-3.475-22.735,0-35.14.29-.965,2.8-6.806,2.365-7.723-.579-1.3-2.944-2.993-4.344-2.655-4.3,1.014-9.026,3.524-9.943,7.868-1.448,6.758-1.062,13.708,0,22.59Z" transform="translate(-742.439 -260.109)"></path></g><g id="Group_577" data-name="Group 577" transform="translate(37.519 54.856)"><path id="Path_804" data-name="Path 804" class="cls-12" d="M650.456,355.429c-3.572,1.4-6.9,2.7-8.93,3.427.145-6.227-.048-14.384-1.641-20.563-1.159-4.489-10.136-17.329-12.116-24.714-.869-3.282,3.137-7,4.972-7.627,10.185-3.379,19.742,31.23,17.715,47.063Z" transform="translate(-627.648 -305.722)"></path></g><g id="Group_578" data-name="Group 578" transform="translate(3.176)"><path id="Path_805" data-name="Path 805" class="cls-12" d="M610.465,195.659c-2.027.531-2.317.193-3.089,1.545-2.172,3.765,1.062,16.122,2.462,29.01.048.531,1.062,10.909,1.062,10.909-.29.386-17.522,5.5-18.873,6.082,0,0-7.868-3.717-9.75-4.827-5.648-3.331-7.868-4.2-11.247-6.9-4.586-3.668-14.529-10.812-14.529-16.653s2.655-7.482,5.31-9.461c2.365-1.786,15.639-7,24.424-10.668,5.261-2.172,9.461-4.248,20.611-.724Z" transform="translate(-556.5 -192.076)"></path></g><path id="Path_806" data-name="Path 806" class="cls-14" d="M758.3,229" transform="translate(-657.716 -211.177)"></path><path id="Path_807" data-name="Path 807" class="cls-14" d="M552.9,409" transform="translate(-551.461 -304.292)"></path></g><g id="Group_595" data-name="Group 595" transform="translate(0 32.4)"><path id="Path_808" data-name="Path 808" class="cls-9" d="M488.6,372.2" transform="translate(-325.016 -317.656)"></path><path id="Path_809" data-name="Path 809" class="cls-9" d="M480.9,386.2" transform="translate(-321.032 -324.898)"></path><path id="Path_810" data-name="Path 810" class="cls-9" d="M487.1,374.4" transform="translate(-324.24 -318.794)"></path><path id="Path_811" data-name="Path 811" class="cls-9" d="M510.1,315.4" transform="translate(-336.138 -288.273)"></path><g id="Group_581" data-name="Group 581" transform="translate(17.28 140.204)"><path id="Path_812" data-name="Path 812" class="cls-10" d="M193.964,557.047c1.593.145-2.22,9.9-2.462,10.088-.29.241-1.641-.821-3.524-2.076-.772-4.73-1.931-10.185-1.979-15.06C186.821,550.386,192.468,556.9,193.964,557.047Z" transform="translate(-185.759 -549.837)"></path><g id="Group_580" data-name="Group 580"><path id="Path_813" data-name="Path 813" class="cls-10" d="M193.658,557.066c1.207.386-1.4,7-1.738,7.771-.483,1.255-.386,2.317-1.786,1.545-2.7-1.593-2.7-4.006-3.186-6.854-.483-2.8-.676-5.6-1.062-8.447-.145-1.158-.193-1.014.579-.338.531.483,1.062,1.014,1.545,1.545,1.5,1.448,3.524,4.3,5.648,4.779.241.048.338-.29.1-.338-1.786-.386-3.524-2.751-4.73-3.958a17.79,17.79,0,0,0-3.234-3.089c-.1-.048-.29,0-.29.145a59.452,59.452,0,0,0,.676,7.192c.193,1.255.386,2.558.627,3.813.145.966.145,3.331.676,4.1.531.724,3.041,2.752,3.958,1.979.434-.338.724-1.69.869-2.172a40.774,40.774,0,0,0,1.352-4.1c.193-.676,1.255-3.524.048-3.91C193.561,556.631,193.464,557.018,193.658,557.066Z" transform="translate(-185.5 -549.662)"></path></g></g><g id="Group_583" data-name="Group 583" transform="translate(15.444 92.719)"><path id="Path_814" data-name="Path 814" class="cls-11" d="M190.22,461.437a96.9,96.9,0,0,0-5.7-8.737c-2.365,18.728-.821,48.414-.386,49.138.434.627,12.453,9.316,13.081,9.75,12.984,8.689,8.254,5.7,22.831,14.095,2.124,1.255,14.433,9.413,17.473,10.04,0,0-.917-12.5-2.124-17.715s-6.13-18.246-8.4-23.362-6.806-9.605-5.6-10.571c1.158-.965-16.7-7.1-20.177-11.054-1.11-1.255-10.571-10.426-12.019-13.371" transform="translate(-182.495 -452.018)"></path><g id="Group_582" data-name="Group 582"><path id="Path_815" data-name="Path 815" class="cls-11" d="M190.048,460.367a93.411,93.411,0,0,0-5.7-8.737.734.734,0,0,0-1.352.386,239.827,239.827,0,0,0-1.255,32.244c.048,4.151.193,8.254.434,12.405.1,1.352-.145,3.572.531,4.827a6.619,6.619,0,0,0,1.882,1.593c1.4,1.062,2.8,2.124,4.248,3.186,2.365,1.738,4.73,3.524,7.144,5.213q8.761,6.082,18,11.343c4.006,2.269,7.868,4.682,11.778,7.144,3.282,2.027,6.9,4.827,10.716,5.744.434.1.965-.193.917-.676-.434-5.937-.772-12.116-2.172-17.908-1.786-7.578-4.875-15.06-7.868-22.2A32.725,32.725,0,0,0,225,490.246c-1.062-1.738-3.089-3.717-3.668-5.7-.193-.676.145-1.062-.1-1.738-.193-.531-.965-.869-1.4-1.11-5.551-3.186-11.971-4.827-17.28-8.544-2.317-1.593-4.2-4.006-6.13-6.034-2.51-2.607-5.647-5.358-7.385-8.592-.434-.821-1.689-.1-1.255.724,1.352,2.558,3.717,4.73,5.647,6.854,2.027,2.172,4.151,4.3,6.227,6.42,4.1,4.248,10.571,6.275,15.832,8.64,1.11.531,2.269,1.014,3.331,1.593a11.543,11.543,0,0,0,1.014.628c.386.048.1-1.014-.145,0a3.674,3.674,0,0,0,.821,2.607c1.158,2.027,2.607,3.862,3.813,5.889a77.479,77.479,0,0,1,4.73,11.1c1.5,3.958,2.944,7.916,4.151,11.971,1.931,6.42,2.317,13.371,2.8,20.032a11.137,11.137,0,0,1,.917-.676c-3.331-.821-6.516-3.282-9.412-5.02-2.9-1.786-5.744-3.717-8.737-5.406-6.082-3.524-12.116-7-17.956-10.909-5.454-3.668-10.957-7.434-16.074-11.585a4.874,4.874,0,0,1-.772-.627c-.048-.048.1.193-.048-.241a16.661,16.661,0,0,1-.241-3.089c-.241-3.668-.338-7.337-.434-11.005-.241-11.44-.193-23.024,1.207-34.416-.434.145-.917.241-1.352.386a93.388,93.388,0,0,1,5.7,8.737c.483.772,1.738,0,1.255-.772Z" transform="translate(-181.696 -451.286)"></path></g></g><g id="Group_584" data-name="Group 584" transform="translate(74.037 80.784)"><path id="Path_816" data-name="Path 816" class="cls-12" d="M435.156,447.046a72.051,72.051,0,0,0-7.337,4.006c-2.9,1.834-.338.193-12.791,7.627-5.841,3.475-100.786,59.178-107.109,61.592-1.738.628-5.889-23.121-4.586-23.845s122.7-68.4,125.886-69.8S436.942,446.08,435.156,447.046Z" transform="translate(-303.084 -426.56)"></path></g><g id="Group_585" data-name="Group 585" transform="translate(53 60.609)"><path id="Path_817" data-name="Path 817" class="cls-11" d="M375.684,423.59c10.909-7.192,20.08-12.743,32.292-17.425,1.786-.676-.29-2.124-.29-2.124-14.577-7.482-24.666-11.681-37.94-19.163-.917-.531-3.813.965-4.875.917a6.5,6.5,0,0,0-3.524,1.448c-7.868,5.454-94.7,48.9-101.848,55.317,11.005,4.972,12.984,27.465,24.376,31.423Z" transform="translate(-259.5 -384.764)"></path></g><g id="Group_587" data-name="Group 587" transform="translate(205.574 98.596)"><path id="Path_818" data-name="Path 818" class="cls-10" d="M575.948,467.468c1.159,4.1,3.089,9.557,3.282,9.8s3.524-1.545,3.717-1.834c.241-.338.772-6.275.772-11.633l-7.82,3.379" transform="translate(-575.751 -463.637)"></path><g id="Group_586" data-name="Group 586"><path id="Path_819" data-name="Path 819" class="cls-10" d="M575.6,467.342c.531,1.931,1.11,3.813,1.786,5.7a18.6,18.6,0,0,0,1.3,3.572c.628.965.772.676,1.931.145,1.352-.676,2.365-.917,2.607-2.413a66.182,66.182,0,0,0,.579-10.716c0-.145-.145-.193-.29-.145-2.607,1.11-5.213,2.269-7.82,3.379-.193.1-.048.386.193.29,1.738-.724,3.475-1.5,5.165-2.22.338-.145,2.172-1.255,2.51-1.062.145.048-.29,5.31-.338,6.034-.1,1.352.145,3.668-.434,4.923-.29.627-2.655,2.317-3.379,2.076-.676-.193-1.158-2.607-1.4-3.282-.724-2.076-1.4-4.2-1.979-6.371-.145-.241-.483-.145-.434.1Z" transform="translate(-575.59 -463.462)"></path></g></g><g id="Group_588" data-name="Group 588" transform="translate(157.213 20.91)"><path id="Path_820" data-name="Path 820" class="cls-13" d="M529.027,334.512c-3.186-.29-3.475.531-5.7,2.8-1.158,1.158-1.689,1.545-2.172,3.089-2.655,8.3-1.448,17.522-.483,26.21-3.717-1.641-18.439-8.785-20.707-10.667-5.744-4.827-19.983-11.585-20.128-11.681-1.3-.434-1.689-7.482-1.786-9.7-.531-10.716-6.661-36.974,1.738-31.23,2.944,2.027,5.744,2.7,8.737,4.489,11.874,6.854,43.2,23.749,45.614,28.527Z" transform="translate(-475.399 -302.519)"></path></g><g id="Group_589" data-name="Group 589" transform="translate(201.398 52.935)"><path id="Path_821" data-name="Path 821" class="cls-12" d="M568.754,407.836c.965,4.972,1.4,8.061,2.413,11.15,2.172-.29,6.178-2.993,8.64-4.586-1.062-14.626-3.475-22.735,0-35.14.29-.965,2.8-6.806,2.365-7.723-.579-1.3-2.9-2.848-4.344-2.655-6.275.724-9.026,3.524-9.943,7.868-1.448,6.758-1.062,13.708,0,22.59Z" transform="translate(-566.939 -368.866)"></path></g><g id="Group_591" data-name="Group 591" transform="translate(70.285 174.252)"><path id="Path_822" data-name="Path 822" class="cls-10" d="M295.794,622.587c-.145,3.041,2.607,11.826,2.9,12.067.241.193,2.944.483,3.234.1.29-.338,2.7-15.012,2.172-14.095Z" transform="translate(-295.558 -620.414)"></path><g id="Group_590" data-name="Group 590"><path id="Path_823" data-name="Path 823" class="cls-10" d="M295.354,622.372c-.048,3.62,1.255,7.578,2.462,11.005.29.869.29,1.062,1.062,1.4.628.29,2.462.434,2.993-.145.386-.386.434-1.738.531-2.269.338-1.689.579-3.379.869-5.068.241-1.5.483-2.993.676-4.489a6.1,6.1,0,0,0,.193-2.462q0-.073-.145-.145h0a.291.291,0,0,0-.193.048c-.434.531-3.427.821-4.151.965-1.4.338-2.8.628-4.2.965-.241.048-.145.386.1.338,1.3-.29,2.655-.628,3.958-.917.965-.241,3.331-1.3,4.344-1.014.29.1-.193-.338-.1.145a5.252,5.252,0,0,1-.145,1.5c-.241,1.931-.579,3.91-.869,5.841-.29,1.641-.531,3.331-.869,4.972-.048.241-.1,1.11-.29,1.3a4.517,4.517,0,0,1-2.993-.1c-.386-.338-.579-1.545-.724-1.979-.338-1.062-.628-2.124-.917-3.186a24.87,24.87,0,0,1-1.207-6.758A.2.2,0,0,0,295.354,622.372Z" transform="translate(-295.31 -620.2)"></path></g></g><g id="Group_592" data-name="Group 592" transform="translate(16.61 75.638)"><path id="Path_824" data-name="Path 824" class="cls-13" d="M236.575,471.989c-6.42-6.709-20.128-18.246-26.741-23.459-4.73-3.765-3.91-8.785-7.433-13.757s-6.468-.724-5.406-6.709c0,0-2.22-2.51-1.883-2.9,1.689-2.269,7.578-9.268,7.578-9.268-5.117,2.317-12.647,7.771-16.412,13.322-2.269,3.427-3.089,7.675-.821,11.1s4.972,9.413,7.916,12.26c7.337,7.1,29.251,22.252,31.182,24.279.241-2.172-.048-3.62,1.5-5.165,1.931-1.931,4.055-3.475,6.613-2.558Z" transform="translate(-184.112 -415.9)"></path></g><g id="Group_593" data-name="Group 593" transform="translate(56.631 128.707)"><path id="Path_825" data-name="Path 825" class="cls-12" d="M289.8,572.741c-3.572,1.4-6.854.1-8.882.772a52.363,52.363,0,0,0-1.689-16.363c-1.158-4.489-10.137-17.329-12.116-24.714-.869-3.282,5.165-6.034,5.648-6.227,9.847-4.2,19.211,28.961,17.136,44.746Z" transform="translate(-267.023 -525.845)"></path></g><g id="Group_594" data-name="Group 594" transform="translate(26.058 18.567)"><path id="Path_826" data-name="Path 826" class="cls-12" d="M338.121,299.613c-5.068.676-1.931,20.949.434,32.34.1.531.965,10.812.965,10.812-2.076.1-21.818,12.791-23.169,13.371,0,0-51.552,30.023-79.934,44.456l-16.412-13.226a84.064,84.064,0,0,1-10.378-10.426c-6.13-7-6.758-8.4-5.261-14.288,1.882-7.578,32.1-23.266,41.463-27.9,5.261-2.606,47.256-24.907,52.179-26.982,2.751-1.158,20.852-9.364,23.8-9.75C331.991,296.668,338.121,299.613,338.121,299.613Z" transform="translate(-203.684 -297.665)"></path></g><path id="Path_827" data-name="Path 827" class="cls-14" d="M149.7,465.9" transform="translate(-149.7 -366.127)"></path><path id="Path_828" data-name="Path 828" class="cls-14" d="M409.1,259.2" transform="translate(-283.89 -259.2)"></path><path id="Path_829" data-name="Path 829" class="cls-14" d="M407.6,344.3" transform="translate(-283.114 -303.223)"></path><path id="Path_830" data-name="Path 830" class="cls-14" d="M344.3,651.1" transform="translate(-250.368 -461.933)"></path></g></g><g id="Group_619" data-name="Group 619" transform="translate(290.858 72.401)"><g id="Group_618" data-name="Group 618" transform="translate(0 20.334)"><path id="Path_831" data-name="Path 831" class="cls-15" d="M833.331,314.987s-.965-2.076-2.172-1.5c-1.158.579-.338,3.668,0,4.875s1.014,3.331,2.172,3.331C834.489,321.648,834.489,317.642,833.331,314.987Z" transform="translate(-720.525 -247.858)"></path><path id="Path_832" data-name="Path 832" class="cls-16" d="M834.386,301.437a.571.571,0,0,0-.772-.483l-6.709,2.8a12.144,12.144,0,0,0-7.868,3.282l-6.565,2.848c-.1.29-7.1,7.289-7.771,7.82l3.958,3.524,10.474-6.9c.048,0,6.806-1.062,6.806-1.062,2.462-1.014,5.406-2.9,5.02-6.034a5.535,5.535,0,0,0-.338-1.352.866.866,0,0,0-.241-.338,27.611,27.611,0,0,1,2.9-1.689A2.26,2.26,0,0,0,834.386,301.437Z" transform="translate(-707.148 -241.404)"></path><path id="Path_833" data-name="Path 833" class="cls-17" d="M786.124,302.1l-30.892,16.7s-10.233,6.42-14.191,4.344-.241-47.642,2.22-47.642a2.753,2.753,0,0,0,.338.386,28.688,28.688,0,0,1,4.006,7.433c.434,1.11.821,2.317,1.158,3.524h0s2.365,7.771,5.6,17.28c0,0,.386,2.993,4.537,1.255,3.041-1.062,23.748-10.909,25-11.536-1.062.628-.241,3.668.048,4.827C784.29,299.973,784.966,302.1,786.124,302.1Z" transform="translate(-673.319 -228.258)"></path><ellipse id="Ellipse_50" data-name="Ellipse 50" class="cls-18" cx="49.476" cy="28.575" rx="49.476" ry="28.575" transform="translate(0 203.345)"></ellipse><g id="Group_599" data-name="Group 599" transform="translate(57.531 205.527)"><g id="Group_598" data-name="Group 598"><g id="Group_597" data-name="Group 597"><path id="Path_834" data-name="Path 834" class="cls-19" d="M731.882,603.7c2.317.434.917-.338,1.207,5.165,0,2.365,2.607,5.068,2.993,5.551,1.3,1.5,7.24,6.468,7.24,6.468s4.006,5.454-3.186,5.02-12.743-2.317-17.377-9.509c-1.11-2.462-1.352-8.4-.29-10.764C724.641,604.135,729.275,602.832,731.882,603.7Z" transform="translate(-721.787 -603.422)"></path></g></g></g><g id="Group_602" data-name="Group 602" transform="translate(22.935 220.555)"><g id="Group_601" data-name="Group 601"><g id="Group_600" data-name="Group 600"><path id="Path_835" data-name="Path 835" class="cls-19" d="M661.6,634.818c1.979.579,1.979,1.786,2.51,8.157.048.724,2.22,3.524,2.7,4.1,1.545,1.689,8.5,7.24,8.5,7.24s4.779,6.178-3.524,5.889-14.481-2.317-20.37-9.606c-1.351-2.8-1.786-10.523-.627-13.274C653.2,635.542,658.506,633.9,661.6,634.818Z" transform="translate(-650.114 -634.556)"></path></g></g></g><g id="Group_603" data-name="Group 603" transform="translate(22.684 104.151)"><path id="Path_836" data-name="Path 836" class="cls-20" d="M696.467,408.6c-.338,5.551-.676,16.412.241,22.349-.724,7.482-.145,69.749-.145,69.749l-1.158,1.786c-2.365,2.751-6.227,2.607-9.219.676,0,0-1.979-1.834-1.979-3.282-.241-3.524-8.061-56.861-8.061-56.668,0,0-.434-3.138-2.414-3.041-1.931.193-2.365,6.323-2.365,6.323l-7.385,71.921s-.965,1.738-4.441,2.414-6.034.386-7.964-.821c0,0-1.979-.821-1.979-2.365-.1-1.834,2.607-73.949,1.931-95.187-.386-12.357,5.744-14.77,5.744-14.77L695.357,393.4C696.515,396.875,695.791,401.509,696.467,408.6Z" transform="translate(-649.595 -393.4)"></path></g><path id="Path_837" data-name="Path 837" class="cls-21" d="M692.334,389.744c-2.124,2.848-9.992,5.841-14.771,6.951-10.185,2.365-27.658-.772-27.707-.772a13.969,13.969,0,0,1-11.2-15.639c.772-5.406,8.978-33.306,9.557-47.449.772-19.4-6.372-26.4-7.289-37.553-.1-.917-.145-1.834-.193-2.7a14.546,14.546,0,0,1,0-1.5c-.1-9.9,2.558-16.363,5.937-20.659a3.375,3.375,0,0,1,.676-.821,56.53,56.53,0,0,1,16.025-9.7s16.025.338,16.315.048a7.5,7.5,0,0,1,1.11.241,24.659,24.659,0,0,1,10.33,7.337h0a58.286,58.286,0,0,1,1.448,6.082,81.692,81.692,0,0,1,1.352,17.136C694.168,292.433,695.23,385.834,692.334,389.744Z" transform="translate(-621.185 -220.188)"></path><path id="Path_838" data-name="Path 838" class="cls-22" d="M675.747,395.674c-2.076.724-3.91,1.4-5.792,2.027-.241.1-.483.145-.724.241a36.425,36.425,0,0,1-7.964,1.545h0c-.434,0-.917.048-1.4.048a51.575,51.575,0,0,1-12.695-1.062c-.386-.1-.772-.193-1.207-.29a.291.291,0,0,1-.193-.048c-7.289-1.352-16.17-7.964-15.156-15.3.82-5.792,10.909-33.933,11.488-49.717.676-19.356-4.344-27.417-5.261-38.036-.1-.917-.145-1.834-.193-2.7a14.564,14.564,0,0,1,0-1.5c-.1-9.9,2.558-16.363,5.937-20.659a3.377,3.377,0,0,1,.676-.821,56.53,56.53,0,0,1,16.025-9.7l.338.724.145-.1.627-.338,1.545,2.9c1.159-.145,2.558-.338,4.1-.676l1.545,1.062,6.275,23.024,2.9,18.922C676.808,305.266,678.45,375.884,675.747,395.674Z" transform="translate(-617.051 -220.085)"></path><g id="Group_616" data-name="Group 616" transform="translate(36.395)"><path id="Path_839" data-name="Path 839" class="cls-16" d="M703.251,220.906c.29-.145.531-.241.628-.29a6.9,6.9,0,0,0,1.062-.386c6.854-2.8,9.943-10.861,9.316-16.074a9.322,9.322,0,0,0-.338-2.076c-1.159-4.441-4.972-6.854-7.53-8.013h-.145c-20.611-14.046-23.893,11.826-23.748,16.412,0,1.11.821,2.365,1.641,3.765.048.048.1.145.145.193.338.531.676,1.062.965,1.593a7.808,7.808,0,0,1,.483.869.177.177,0,0,0,.048.145,15.052,15.052,0,0,1,.483,5.744c-.048.724-.435,1.689-.386,2.269a10.963,10.963,0,0,0,1.3,4.73,9.62,9.62,0,0,0,4.2,3.717,15.868,15.868,0,0,0,9.316,1.014,5.991,5.991,0,0,0,4.441-5.647c0-2.317-1.834-3.427-2.606-5.117-.048-.1-.1-.145-.1-.241A1.72,1.72,0,0,1,703.251,220.906Z" transform="translate(-680.323 -183.994)"></path><path id="Path_840" data-name="Path 840" class="cls-23" d="M704.753,256.309c-4.248,3.282-9.316.676-10.812-.29a20.371,20.371,0,0,1-4.827-5.261,15.049,15.049,0,0,0-.483-5.744v-.048c0-.048,0-.048-.048-.1A7.821,7.821,0,0,0,688.1,244a8.668,8.668,0,0,0,.917.965l.145.145c2.22,2.365,7.578,3.91,7.723,3.958h.048c3.427.965,8.544-.1,9.171-.241a1.814,1.814,0,0,0-.917,2.607.815.815,0,0,1,.1.241C705.622,252.254,705.863,255.391,704.753,256.309Z" transform="translate(-683.225 -211.963)"></path><g id="Group_614" data-name="Group 614" transform="translate(14.432 14.096)"><g id="Group_605" data-name="Group 605" transform="translate(14.336 0.048)"><g id="Group_604" data-name="Group 604"><path id="Path_841" data-name="Path 841" class="cls-24" d="M737.6,210.874a10.425,10.425,0,0,0,.772,3.668l.434,1.014a11.757,11.757,0,0,0,4.344,4.923V207.688c-1.593-.917-2.993-.965-4.006-.338A3.968,3.968,0,0,0,737.6,210.874Z" transform="translate(-737.6 -206.931)"></path><path id="Path_842" data-name="Path 842" class="cls-24" d="M749.1,208.5v12.791l3.572,2.076V210.576Z" transform="translate(-743.549 -207.743)"></path></g></g><path id="Path_843" data-name="Path 843" class="cls-25" d="M756.5,212.8" transform="translate(-733.041 -209.919)"></path><path id="Path_844" data-name="Path 844" class="cls-26" d="M711,215.5l4.055,4.248,1.641,1.689,1.979-1.4,5.551-4.006.869-.531,4.344-2.7,3.572-2.22v-.917l-3.572-2.076c-1.593-.917-2.993-.965-4.006-.338l-14.095,8.013L711,215.5Z" transform="translate(-709.504 -206.831)"></path><g id="Group_610" data-name="Group 610" transform="translate(0 8.197)"><g id="Group_607" data-name="Group 607"><g id="Group_606" data-name="Group 606"><path id="Path_845" data-name="Path 845" class="cls-27" d="M713.451,224.579c-3.041-1.786-5.551-.338-5.551,3.186a12.24,12.24,0,0,0,5.551,9.606Z" transform="translate(-707.9 -223.813)"></path><path id="Path_846" data-name="Path 846" class="cls-27" d="M722.972,227.476,719.4,225.4v12.791l3.572,2.076Z" transform="translate(-713.849 -224.634)"></path></g></g><g id="Group_609" data-name="Group 609" transform="translate(2.22 4.14)"><g id="Group_608" data-name="Group 608" transform="translate(0 0.102)"><path id="Path_847" data-name="Path 847" class="cls-28" d="M712.5,233.517l1.5-.917,2.462,4.344-1.352.821-2.076-1.931Z" transform="translate(-712.5 -232.6)"></path></g><path id="Path_848" data-name="Path 848" class="cls-28" d="M718.072,235.677a3.77,3.77,0,0,0-1.786-3.041,1.087,1.087,0,0,0-1.786,1.014,3.77,3.77,0,0,0,1.786,3.041C717.3,237.27,718.072,236.787,718.072,235.677Z" transform="translate(-713.535 -232.389)"></path></g><path id="Path_849" data-name="Path 849" class="cls-29" d="M715.172,237.377a3.77,3.77,0,0,0-1.786-3.041,1.087,1.087,0,0,0-1.786,1.014,3.77,3.77,0,0,0,1.786,3.041A1.087,1.087,0,0,0,715.172,237.377Z" transform="translate(-709.814 -229.129)"></path></g><path id="Path_850" data-name="Path 850" class="cls-30" d="M726.8,220.958v12.791l14.336-8.158V212.8l-3.572,2.027-4.827,2.751Z" transform="translate(-717.677 -209.919)"></path><g id="Group_611" data-name="Group 611" transform="translate(10.281 12.33)"><path id="Path_851" data-name="Path 851" class="cls-31" d="M729.2,237.6c0,1.786,1.255,2.51,2.8,1.593a6.115,6.115,0,0,0,2.8-4.827c0-1.786-1.255-2.51-2.8-1.593A6.266,6.266,0,0,0,729.2,237.6Z" transform="translate(-729.2 -232.375)"></path><path id="Path_852" data-name="Path 852" class="cls-31" d="M732.1,240.43l-1.5-.821,1.593-4.682,2.51-2.027,1.4.772Z" transform="translate(-729.924 -232.647)"></path><path id="Path_853" data-name="Path 853" class="cls-31" d="M732.2,239.4c0,1.786,1.255,2.51,2.8,1.593a6.115,6.115,0,0,0,2.8-4.827c0-1.786-1.255-2.51-2.8-1.593A6.115,6.115,0,0,0,732.2,239.4Z" transform="translate(-730.752 -233.306)"></path></g><g id="Group_612" data-name="Group 612" transform="translate(17.28 8.324)"><path id="Path_854" data-name="Path 854" class="cls-32" d="M743.7,229.3c0,1.786,1.255,2.51,2.8,1.593a6.115,6.115,0,0,0,2.8-4.827c0-1.786-1.255-2.51-2.8-1.593A6.189,6.189,0,0,0,743.7,229.3Z" transform="translate(-743.7 -224.075)"></path><path id="Path_855" data-name="Path 855" class="cls-32" d="M746.648,232.078l-1.448-.821,1.593-4.73,2.462-2.027,1.448.821Z" transform="translate(-744.476 -224.295)"></path><path id="Path_856" data-name="Path 856" class="cls-24" d="M746.8,231.1c0,1.786,1.255,2.51,2.8,1.593a6.189,6.189,0,0,0,2.8-4.827c0-1.786-1.255-2.51-2.8-1.593A5.991,5.991,0,0,0,746.8,231.1Z" transform="translate(-745.304 -225.007)"></path></g><g id="Group_613" data-name="Group 613" transform="translate(9.797 7.998)"><path id="Path_857" data-name="Path 857" class="cls-33" d="M731.385,236.626l9.364-5.406a7.034,7.034,0,0,0,3.186-5.551h0c0-2.027-1.448-2.848-3.186-1.834l-9.364,5.406a7.034,7.034,0,0,0-3.186,5.551h0C728.15,236.819,729.6,237.639,731.385,236.626Z" transform="translate(-728.198 -223.4)"></path><path id="Path_858" data-name="Path 858" class="cls-33" d="M734.151,239.391,730,237.026l5.068-6.613,7.82-5.117,1.014-1.5,4.2,2.413-3.958,2.993Z" transform="translate(-729.13 -223.607)"></path><path id="Path_859" data-name="Path 859" class="cls-30" d="M739.885,241.526l9.364-5.406a7.034,7.034,0,0,0,3.186-5.551h0c0-2.027-1.448-2.848-3.186-1.834l-9.364,5.406a7.165,7.165,0,0,0-3.186,5.551h0C736.65,241.719,738.1,242.539,739.885,241.526Z" transform="translate(-732.595 -225.935)"></path></g></g><g id="Group_615" data-name="Group 615"><path id="Path_860" data-name="Path 860" class="cls-20" d="M678.145,197.984c.338,4.875,2.8,9.171,4.441,10.33a1.433,1.433,0,0,0,.628.29,1.988,1.988,0,0,0,.579-.048.686.686,0,0,0,.29-.1c.1-.048.145-.1.241-.1a.047.047,0,0,1,.048-.048c.048-.048.145-.1.193-.193h0c.869-.338,1.062-3.186,1.158-5.7.048-1.014.048-1.979.1-2.7a2.971,2.971,0,0,1,.434-1.4c1.159-2.027,4.2-2.993,5.551,1.158.241.965.483,1.352.82,1.352,1.11,0,3.089-4.3,8.206-4.344,2.9.1,5.5.1,5.5.1a15.369,15.369,0,0,0,4.634-.483,3.07,3.07,0,0,0,.338-.1c.048,0,.1,0,.1-.048a3.7,3.7,0,0,0,2.027-1.5,3.084,3.084,0,0,0,.386-.917c.627-2.269-.676-5.261-.821-5.551h0a12.666,12.666,0,0,0-2.317-3.475c-.1-.1-.241-.193-.338-.29-.241-.193-.435-.338-.483-.386l-.048-.048c-14.288-11.536-24.859-4.779-29.4,3.186h0a21.238,21.238,0,0,0-1.641,3.765c-.193.628-.338,1.207-.483,1.786-.048.434-.1.821-.145,1.3-.048.579-.1,1.255-.145,2.124C678.1,196.536,678.1,197.26,678.145,197.984Z" transform="translate(-678 -177.628)"></path><path id="Path_861" data-name="Path 861" class="cls-20" d="M732.716,190.1s4.875,4.248,7.578,3.572c1.158.772-1.883,7.482-6.468,8.737s-11.826-9.9-11.826-9.9Z" transform="translate(-700.762 -184.08)"></path></g><path id="Path_862" data-name="Path 862" class="cls-27" d="M679.662,200.465A21.208,21.208,0,0,1,681.3,196.7c-2.848,5.792,5.31,11.2,5.31,11.2h0l.434.241,7.964,4.586v4.392l-8.447-4.875-.724-.386c-.1-.048-.241-.145-.435-.241l-.145-.1h0C683.427,210.36,678.7,206.692,679.662,200.465Z" transform="translate(-678.793 -187.494)"></path></g><g id="Group_617" data-name="Group 617" transform="translate(19.983 51.06)"><path id="Path_863" data-name="Path 863" class="cls-34" d="M748.559,357.311s-2.9,1.448-1.545,5.116c1.351,3.717,5.165,2.076,5.165,2.076s.82-.434,0-2.365C751.359,360.256,749.959,356.635,748.559,357.311Z" transform="translate(-697.104 -321.596)"></path><path id="Path_864" data-name="Path 864" class="cls-16" d="M761.914,352.232c-4.3-.821-5.889-.917-8.737-.386-4.489.483-13.177,6.178-13.177,6.178l2.848,3.186c.048,0,.1-.048.145-.048.241-.1.724,1.738.965,1.593a18.46,18.46,0,0,0,3.861-2.365,2.335,2.335,0,0,1,1.931-.434c2.172.821,11.247,4.151,11.15-1.5a7.268,7.268,0,0,0-.676-3.282c2.172-.241,6.082-.821,6.178-1.448C766.5,352.86,766.21,353.053,761.914,352.232Z" transform="translate(-693.662 -318.642)"></path><path id="Path_865" data-name="Path 865" class="cls-17" d="M699.027,326.364c-1.207.579-20.321,9.9-27.176,11.247C652.158,341.086,644,321.586,644,300.589c0-.917,0-1.834.048-2.751V297.5c.193-4.73,1.158-8.4,2.993-10.523a15.1,15.1,0,0,1,4.1-3.089s1.352-.338,1.593-.338c5.31-1.207,7.723,5.7,7.723,8.061,0,2.413-.241,12.357-.241,12.357a5.587,5.587,0,0,1-.048.821c-.048,4.151.193,14.77,4.2,19.694,4.682,5.261,30.458-5.02,30.458-5.02h.29c-.241.531-.483,1.689.338,3.91C696.662,326.654,698.689,326.461,699.027,326.364Z" transform="translate(-644 -283.409)"></path></g></g><path id="Path_866" data-name="Path 866" class="cls-20" d="M653.026,158.429s-2.076-27.369-16.556-22.3-6.323,24.762-8.351,35.14A19.618,19.618,0,0,1,613.3,186.812s24.617,6.9,25.583-16.074C639.848,148.679,653.026,158.429,653.026,158.429Z" transform="translate(-608.135 -135.503)"></path></g><g id="Group_622" data-name="Group 622" transform="translate(375.239 27)"><g id="Group_621" data-name="Group 621" class="cls-35"><rect id="Rectangle_752" data-name="Rectangle 752" class="cls-36" width="313.267" height="494.277"></rect><g id="Group_9617" data-name="Group 9617" transform="translate(14.898 14.625)"><path id="Path_867" data-name="Path 867" class="cls-13" d="M1129.023,334.782,845.2,495.422V173.563L1129.023,30.3Z" transform="translate(-845.2 -30.3)"></path></g></g><path id="Path_868" data-name="Path 868" class="cls-37" d="M1143.736,359,1055.5,466.158l101.172,12.164Z" transform="translate(-939.091 -185.713)"></path><path id="Path_869" data-name="Path 869" class="cls-38" d="M1129.023,76.387,845.2,231.331V174.663L1129.023,31.4Z" transform="translate(-830.302 -16.243)"></path></g><g id="Group_625" data-name="Group 625" transform="translate(308.107 227.102)"><g id="Group_624" data-name="Group 624" class="cls-35"><rect id="Rectangle_753" data-name="Rectangle 753" class="cls-36" width="198.387" height="306.027"></rect><g id="Group_9616" data-name="Group 9616" transform="translate(15.753 15.625)"><path id="Path_870" data-name="Path 870" class="cls-13" d="M837.794,671.219,668.9,763.124V571.543L837.794,486.3Z" transform="translate(-668.9 -486.3)"></path></g></g><path id="Path_871" data-name="Path 871" class="cls-38" d="M837.794,513.689,668.9,605.932v-33.74L837.794,486.9Z" transform="translate(-653.146 -470.985)"></path></g><g id="Group_628" data-name="Group 628" transform="translate(614.411 155.494)"><g id="Group_627" data-name="Group 627" class="cls-35"><rect id="Rectangle_754" data-name="Rectangle 754" class="cls-36" width="138.533" height="208.04"></rect><g id="Group_9618" data-name="Group 9618" transform="translate(14.802 14.529)"><path id="Path_872" data-name="Path 872" class="cls-13" d="M1411.992,234.269,1303,290.745V167.127L1411.992,112.1Z" transform="translate(-1303 -112.1)"></path></g></g><path id="Path_873" data-name="Path 873" class="cls-38" d="M1411.992,129.78,1303,189.3V167.527L1411.992,112.5Z" transform="translate(-1288.198 -97.778)"></path></g><g id="Group_630" data-name="Group 630" transform="translate(60.903 257.946)"><path id="Path_874" data-name="Path 874" class="cls-39" d="M253.5,519.9" transform="translate(-192.053 -519.9)"></path><path id="Path_875" data-name="Path 875" class="cls-40" d="M189.9,652.865l1.593,28.817,2.607-1.4.048-29.782-4.248,2.365h0" transform="translate(-159.152 -587.46)"></path><path id="Path_876" data-name="Path 876" class="cls-41" d="M187.406,682.044l-2.22-1.158L182,651.2l3.862,2.317Z" transform="translate(-155.066 -587.823)"></path><path id="Path_877" data-name="Path 877" class="cls-40" d="M243.523,616.9l-4.923,2.848,2.751,31.423,2.269-1.352-.1-32.92" transform="translate(-184.345 -570.079)"></path><path id="Path_878" data-name="Path 878" class="cls-41" d="M238.3,653.706l-2.124-1.255L232.7,623.876l3.668-2.076Z" transform="translate(-181.293 -572.614)"></path><path id="Path_879" data-name="Path 879" class="cls-41" d="M142.406,654.068l-2.269-1.3L137,621.1l4.055,2.076Z" transform="translate(-131.787 -572.251)"></path><path id="Path_880" data-name="Path 880" class="cls-40" d="M144.7,624.6l1.689,31.23,2.655-1.448.048-29.782-4.248,2.413h0" transform="translate(-135.77 -574.062)"></path><path id="Path_881" data-name="Path 881" class="cls-42" d="M160.151,622.634l-27.176-15.591L132.3,591.5l26.741,12.55,1.11,18.584" transform="translate(-129.356 -556.939)"></path><path id="Path_882" data-name="Path 882" class="cls-43" d="M218.965,580.3l.145,18.246L188.6,616.84l-1.3-19.694Z" transform="translate(-157.808 -551.145)"></path><g id="Group_629" data-name="Group 629" transform="translate(0 9.261)"><path id="Path_883" data-name="Path 883" class="cls-41" d="M126.2,560.814c8.93,5.117,10.137,5.551,18.728,10.619.676.386,7.385,4.441,8.206,4.441.676-.048,6.227-3.282,6.806-3.572,10.281-5.744,21.045-11.826,31.134-17.956-8.109-4.634-18.342-10.04-26.838-15.253C163.512,538.659,126.2,560.814,126.2,560.814Z" transform="translate(-126.2 -539.087)"></path></g><path id="Path_884" data-name="Path 884" class="cls-40" d="M219.94,570.6v2.945l-37.747,21.142-.193-2.51L219.94,570.6" transform="translate(-155.066 -546.128)"></path><path id="Path_885" data-name="Path 885" class="cls-44" d="M153.327,601.67l-27.127-15.3V584.1l26.934,15.06Z" transform="translate(-126.2 -553.111)"></path><path id="Path_886" data-name="Path 886" class="cls-41" d="M199.5,605.874,219.821,594l.386,10.281-19.887,11.729Z" transform="translate(-164.119 -558.232)"></path></g><g id="Group_633" data-name="Group 633" transform="translate(88.513 275.015)"><rect id="Rectangle_755" data-name="Rectangle 755" class="cls-45" width="0.628" height="0.917" transform="translate(0 3.542)"></rect><rect id="Rectangle_756" data-name="Rectangle 756" class="cls-45" width="0.628" height="0.917" transform="translate(18.873 7.693)"></rect><g id="Group_632" data-name="Group 632" transform="translate(0.016)"><g id="Group_631" data-name="Group 631"><path id="Path_887" data-name="Path 887" class="cls-45" d="M183.9,561.483l11.778,6.758a2.305,2.305,0,0,0,2.027.048l4.827-2.751c.531-.29.483-.821-.1-1.159l-11.778-6.758a2.305,2.305,0,0,0-2.027-.048l-4.827,2.751C183.273,560.662,183.321,561.145,183.9,561.483Z" transform="translate(-183.434 -556.348)"></path><path id="Path_888" data-name="Path 888" class="cls-46" d="M183.9,559.383l11.778,6.758a2.305,2.305,0,0,0,2.027.048l4.827-2.751c.531-.29.483-.821-.1-1.159l-11.778-6.758a2.306,2.306,0,0,0-2.027-.048l-4.827,2.751C183.273,558.514,183.321,559.045,183.9,559.383Z" transform="translate(-183.434 -555.262)"></path><path id="Path_889" data-name="Path 889" class="cls-47" d="M185.6,560.362l10.619,6.034,6.758-3.861L192.358,556.5Z" transform="translate(-184.554 -555.902)"></path><path id="Path_890" data-name="Path 890" class="cls-48" d="M185.6,564.5l10.619,6.034,6.758-3.862Z" transform="translate(-184.554 -560.041)"></path><path id="Path_891" data-name="Path 891" class="cls-49" d="M214.728,573.769a1.33,1.33,0,0,0,1.207,0,.385.385,0,0,0,0-.724,1.33,1.33,0,0,0-1.207,0C214.391,573.286,214.391,573.576,214.728,573.769Z" transform="translate(-199.492 -564.386)"></path></g><path id="Path_892" data-name="Path 892" class="cls-50" d="M188.922,559.182q-.145.073,0,.145h0a.308.308,0,0,0,.29,0l1.448-.821q.145-.072,0-.145h0a.308.308,0,0,0-.29,0Z" transform="translate(-186.236 -556.846)"></path></g></g></g></g></svg>