<svg xmlns="http://www.w3.org/2000/svg" xmlns:xlink="http://www.w3.org/1999/xlink" viewBox="0 0 159.316 159.316"><defs><style> .cls-1 { opacity: 0.101; } .cls-1, .cls-2, .cls-3 { fill: url(#linear-gradient); } .cls-2 { opacity: 0.401; } .cls-3 { opacity: 0.802; } .cls-4 { fill: none; stroke: #fff; stroke-linejoin: round; stroke-miterlimit: 10; stroke-width: 2px; } </style><linearGradient id="linear-gradient" x1="0.091" y1="0.102" x2="0.884" y2="0.917" gradientUnits="objectBoundingBox"><stop offset="0" stop-color="#662e7c"></stop><stop offset="1" stop-color="#007db8"></stop></linearGradient></defs><g id="SERVICE" transform="translate(-696.342 -1815.342)"><g id="Group_10031" data-name="Group 10031" transform="translate(23 19)"><path id="Path_11188" data-name="Path 11188" class="cls-1" d="M79.658,0A79.658,79.658,0,1,1,0,79.658,79.658,79.658,0,0,1,79.658,0Z" transform="translate(673.342 1796.342)"></path><path id="Path_11189" data-name="Path 11189" class="cls-2" d="M74,0A74,74,0,1,1,0,74,74,74,0,0,1,74,0Z" transform="translate(679 1802)"></path><path id="Path_11190" data-name="Path 11190" class="cls-3" d="M70,0A70,70,0,1,1,0,70,70,70,0,0,1,70,0Z" transform="translate(683 1806)"></path><g id="_x31_8_x5F_model_x5F_preparation_copy" transform="translate(708.227 1821.65)"><g id="Group_10030" data-name="Group 10030" transform="translate(1 1)"><g id="Group_10029" data-name="Group 10029"><g id="Group_10028" data-name="Group 10028"><g id="Group_10025" data-name="Group 10025" transform="translate(23.406)"><path id="Path_11191" data-name="Path 11191" class="cls-4" d="M37.48,45.572,17,33.869V9L37.48,20.7Z" transform="translate(-17 2.703)"></path><path id="Path_11192" data-name="Path 11192" class="cls-4" d="M31,20.7,51.48,9V33.869L31,45.572" transform="translate(-10.52 2.703)"></path><path id="Path_11193" data-name="Path 11193" class="cls-4" d="M17,12.7,37.48,1l20.48,11.7" transform="translate(-17 -1)"></path></g><g id="Group_10026" data-name="Group 10026" transform="translate(0 42.424)"><path id="Path_11194" data-name="Path 11194" class="cls-4" d="M21.48,74.572,1,62.869V38L21.48,49.7Z" transform="translate(-1 -26.297)"></path><path id="Path_11195" data-name="Path 11195" class="cls-4" d="M15,49.7,35.48,38V62.869L15,74.572" transform="translate(5.48 -26.297)"></path><path id="Path_11196" data-name="Path 11196" class="cls-4" d="M1,41.7,21.48,30l20.48,11.7" transform="translate(-1 -30)"></path></g><g id="Group_10027" data-name="Group 10027" transform="translate(46.813 42.424)"><path id="Path_11197" data-name="Path 11197" class="cls-4" d="M53.48,74.572,33,62.869V38L53.48,49.7Z" transform="translate(-33 -26.297)"></path><path id="Path_11198" data-name="Path 11198" class="cls-4" d="M47,49.7,67.48,38V62.869L47,74.572" transform="translate(-26.52 -26.297)"></path><path id="Path_11199" data-name="Path 11199" class="cls-4" d="M33,41.7,53.48,30l20.48,11.7" transform="translate(-33 -30)"></path></g></g><circle id="Ellipse_197" data-name="Ellipse 197" class="cls-4" cx="1.463" cy="1.463" r="1.463" transform="translate(70.219 33.646)"></circle><circle id="Ellipse_198" data-name="Ellipse 198" class="cls-4" cx="1.463" cy="1.463" r="1.463" transform="translate(14.629 33.646)"></circle><circle id="Ellipse_199" data-name="Ellipse 199" class="cls-4" cx="1.463" cy="1.463" r="1.463" transform="translate(42.424 84.848)"></circle></g></g></g></g></g></svg>