<svg xmlns="http://www.w3.org/2000/svg" xmlns:xlink="http://www.w3.org/1999/xlink" viewBox="0 0 160 160"><defs><style> .cls-1 { opacity: 0.1; } .cls-1, .cls-2, .cls-3 { fill: url(#linear-gradient); } .cls-2 { opacity: 0.4; } .cls-3 { opacity: 0.802; } .cls-4 { fill: none; stroke: #fff; stroke-miterlimit: 10; stroke-width: 2px; } </style><linearGradient id="linear-gradient" x1="0.334" y1="0.393" x2="1" y2="1" gradientUnits="objectBoundingBox"><stop offset="0" stop-color="#b82669"></stop><stop offset="1" stop-color="#22358c"></stop></linearGradient></defs><g id="COMMUNITY_" data-name="COMMUNITY " transform="translate(-696 -1815)"><g id="Group_10050" data-name="Group 10050" transform="translate(23 19)"><path id="Path_11200" data-name="Path 11200" class="cls-1" d="M80,0A80,80,0,1,1,0,80,80,80,0,0,1,80,0Z" transform="translate(673 1796)"></path><path id="Path_11201" data-name="Path 11201" class="cls-2" d="M74,0A74,74,0,1,1,0,74,74,74,0,0,1,74,0Z" transform="translate(679 1802)"></path><path id="Path_11202" data-name="Path 11202" class="cls-3" d="M70,0A70,70,0,1,1,0,70,70,70,0,0,1,70,0Z" transform="translate(683 1806)"></path><g id="_x30_9_x5F_teamwork_x5F_collaboration_copy" transform="translate(752.886 1809.889) rotate(45)"><g id="Group_10049" data-name="Group 10049"><g id="Group_10048" data-name="Group 10048"><g id="Group_10047" data-name="Group 10047"><g id="Group_10032" data-name="Group 10032" transform="translate(10.208)"><line id="Line_203" data-name="Line 203" class="cls-4" x2="2.917" transform="translate(4.375 46.667)"></line><line id="Line_204" data-name="Line 204" class="cls-4" y1="7.292"></line><path id="Path_11203" data-name="Path 11203" class="cls-4" d="M20.417,1.458V20.417a1.378,1.378,0,0,1-1.458,1.458H1.458A1.378,1.378,0,0,1,0,20.417V0" transform="translate(0 30.625)"></path><line id="Line_205" data-name="Line 205" class="cls-4" y2="8.75" transform="translate(20.417)"></line></g><g id="Group_10036" data-name="Group 10036" transform="translate(1.458 7.292)"><g id="Group_10034" data-name="Group 10034"><g id="Group_10033" data-name="Group 10033"><path id="Path_11204" data-name="Path 11204" class="cls-4" d="M39.375,4.375H36.458L21.875,0H8.75a2.917,2.917,0,0,0,0,5.833H5.833a2.917,2.917,0,0,0,0,5.833H2.917a2.917,2.917,0,1,0,0,5.833H5.833a2.917,2.917,0,1,0,0,5.833H18.958"></path><line id="Line_206" data-name="Line 206" class="cls-4" x2="8.75" transform="translate(5.833 17.5)"></line><line id="Line_207" data-name="Line 207" class="cls-4" x2="8.75" transform="translate(5.833 11.667)"></line><line id="Line_208" data-name="Line 208" class="cls-4" x2="5.833" transform="translate(8.75 5.833)"></line><path id="Path_11205" data-name="Path 11205" class="cls-4" d="M0,4.375A2.925,2.925,0,0,0,2.917,7.292H8.75l5.833-2.917L20.417,0H26.25" transform="translate(13.125 21.875)"></path></g></g><g id="Group_10035" data-name="Group 10035" transform="translate(39.375 2.917)"><line id="Line_209" data-name="Line 209" class="cls-4" y2="2.917" transform="translate(5.833 4.375)"></line><line id="Line_210" data-name="Line 210" class="cls-4" x2="7.292" transform="translate(45.208)"></line><path id="Path_11206" data-name="Path 11206" class="cls-4" d="M20.417,20.417H1.458A1.378,1.378,0,0,1,0,18.958V1.458A1.378,1.378,0,0,1,1.458,0H21.875"></path><line id="Line_211" data-name="Line 211" class="cls-4" x1="8.75" transform="translate(43.75 20.417)"></line></g></g><g id="Group_10040" data-name="Group 10040" transform="translate(56.875 1.458)"><g id="Group_10038" data-name="Group 10038"><g id="Group_10037" data-name="Group 10037"><path id="Path_11207" data-name="Path 11207" class="cls-4" d="M18.958,39.375V36.458l4.375-14.583V8.75a2.917,2.917,0,0,0-5.833,0V5.833a2.917,2.917,0,1,0-5.833,0V2.917a2.917,2.917,0,0,0-5.833,0V5.833A2.917,2.917,0,1,0,0,5.833V18.958" transform="translate(5.833)"></path><line id="Line_212" data-name="Line 212" class="cls-4" y2="8.75" transform="translate(11.667 5.833)"></line><line id="Line_213" data-name="Line 213" class="cls-4" y2="8.75" transform="translate(17.5 5.833)"></line><line id="Line_214" data-name="Line 214" class="cls-4" y2="5.833" transform="translate(23.333 8.75)"></line><path id="Path_11208" data-name="Path 11208" class="cls-4" d="M2.917,0A2.925,2.925,0,0,0,0,2.917V8.75l2.917,5.833,4.375,5.833V26.25" transform="translate(0 13.125)"></path></g></g><g id="Group_10039" data-name="Group 10039" transform="translate(5.833 39.375)"><line id="Line_215" data-name="Line 215" class="cls-4" x2="2.917" transform="translate(13.125 5.833)"></line><line id="Line_216" data-name="Line 216" class="cls-4" y2="8.75" transform="translate(0 43.75)"></line><path id="Path_11209" data-name="Path 11209" class="cls-4" d="M20.417,18.958V1.458A1.378,1.378,0,0,0,18.958,0H1.458A1.378,1.378,0,0,0,0,1.458V20.417"></path><line id="Line_217" data-name="Line 217" class="cls-4" y1="10.208" transform="translate(20.417 42.292)"></line></g></g><g id="Group_10044" data-name="Group 10044" transform="translate(0 59.792)"><g id="Group_10042" data-name="Group 10042" transform="translate(52.5)"><g id="Group_10041" data-name="Group 10041"><path id="Path_11210" data-name="Path 11210" class="cls-4" d="M0,4.375H2.917L17.5,0H30.625a2.917,2.917,0,0,1,0,5.833h2.917a2.917,2.917,0,1,1,0,5.833h2.917a2.917,2.917,0,1,1,0,5.833H33.542a2.917,2.917,0,1,1,0,5.833H20.417"></path><line id="Line_218" data-name="Line 218" class="cls-4" x1="8.75" transform="translate(24.792 17.5)"></line><line id="Line_219" data-name="Line 219" class="cls-4" x1="8.75" transform="translate(24.792 11.667)"></line><line id="Line_220" data-name="Line 220" class="cls-4" x1="5.833" transform="translate(24.792 5.833)"></line><path id="Path_11211" data-name="Path 11211" class="cls-4" d="M26.25,4.375a2.925,2.925,0,0,1-2.917,2.917H17.5L11.667,4.375,5.833,0H0" transform="translate(0 21.875)"></path></g></g><g id="Group_10043" data-name="Group 10043" transform="translate(0 2.917)"><line id="Line_221" data-name="Line 221" class="cls-4" y2="2.917" transform="translate(46.667 4.375)"></line><line id="Line_222" data-name="Line 222" class="cls-4" x1="10.208"></line><path id="Path_11212" data-name="Path 11212" class="cls-4" d="M0,20.417H20.417a1.378,1.378,0,0,0,1.458-1.458V1.458A1.378,1.378,0,0,0,20.417,0H1.458" transform="translate(30.625)"></path><line id="Line_223" data-name="Line 223" class="cls-4" x2="7.292" transform="translate(0 20.417)"></line></g></g><g id="Group_10046" data-name="Group 10046" transform="translate(7.292 52.5)"><g id="Group_10045" data-name="Group 10045"><path id="Path_11213" data-name="Path 11213" class="cls-4" d="M4.375,0V2.917L0,17.5V30.625a2.917,2.917,0,0,0,5.833,0v2.917a2.917,2.917,0,1,0,5.833,0v2.917a2.917,2.917,0,0,0,5.833,0V33.542a2.917,2.917,0,1,0,5.833,0V20.417"></path><line id="Line_224" data-name="Line 224" class="cls-4" y1="8.75" transform="translate(17.5 24.792)"></line><line id="Line_225" data-name="Line 225" class="cls-4" y1="8.75" transform="translate(11.667 24.792)"></line><line id="Line_226" data-name="Line 226" class="cls-4" y1="5.833" transform="translate(5.833 24.792)"></line><path id="Path_11214" data-name="Path 11214" class="cls-4" d="M4.375,26.25a2.925,2.925,0,0,0,2.917-2.917V17.5L4.375,11.667,0,5.833V0" transform="translate(21.875)"></path></g></g><line id="Line_227" data-name="Line 227" class="cls-4" x2="20.417" transform="translate(10.208 52.5)"></line></g></g></g></g></g></g></svg>