<?xml version="1.0" encoding="UTF-8"?> <!-- Generator: Adobe Illustrator 24.1.2, SVG Export Plug-In . SVG Version: 6.00 Build 0) --> <svg xmlns="http://www.w3.org/2000/svg" xmlns:xlink="http://www.w3.org/1999/xlink" version="1.1" id="Layer_1" x="0px" y="0px" viewBox="0 0 269.39 76.01" style="enable-background:new 0 0 269.39 76.01;" xml:space="preserve"> <style type="text/css"> .st0{fill:#FFFFFF;} </style> <g> <g> <path class="st0" d="M158.12,26.66c-0.6-0.69-1.34-1.24-2.23-1.65c-0.89-0.4-1.92-0.61-3.09-0.61c-1.2,0-2.31,0.21-3.35,0.64 c-1.04,0.42-1.99,1.03-2.83,1.81c-0.85,0.78-1.58,1.71-2.2,2.8c-0.62,1.09-1.11,2.3-1.47,3.63h16.91v0 c0.02-0.1,0.03-0.27,0.04-0.54c0.01-0.26,0.02-0.52,0.02-0.77c0-1.02-0.15-1.99-0.45-2.91C159.17,28.16,158.72,27.36,158.12,26.66 z"></path> <path class="st0" d="M190.14,26.82c-0.68-0.74-1.49-1.32-2.46-1.72c-0.96-0.41-2.05-0.61-3.27-0.61c-1.6,0-3.08,0.36-4.45,1.07 c-1.37,0.71-2.55,1.71-3.56,2.98s-1.79,2.79-2.37,4.55c-0.58,1.76-0.87,3.7-0.87,5.8c0,1.31,0.19,2.51,0.57,3.61 c0.38,1.1,0.9,2.04,1.58,2.82c0.68,0.78,1.49,1.39,2.43,1.82c0.94,0.44,2,0.65,3.15,0.65c1.62,0,3.12-0.38,4.5-1.14 c1.38-0.76,2.58-1.8,3.6-3.12c1.02-1.32,1.82-2.87,2.4-4.65c0.58-1.78,0.87-3.71,0.87-5.77c0-1.33-0.18-2.52-0.55-3.59 C191.34,28.47,190.82,27.56,190.14,26.82z"></path> <path class="st0" d="M210.09,12.47L212.69,0h-76.51l-12.55,59.93h63.97L184.08,76h61.28l13.51-63.54H210.09z M165.09,33.71 c-0.02,0.42-0.05,0.84-0.09,1.27c-0.04,0.43-0.08,0.86-0.11,1.27c-0.04,0.41-0.08,0.77-0.14,1.05h-22.46 c-0.02,0.27-0.03,0.53-0.04,0.78c-0.01,0.25-0.01,0.51-0.01,0.78c0,1.6,0.23,2.96,0.69,4.09c0.46,1.13,1.06,2.05,1.81,2.76 c0.74,0.71,1.58,1.23,2.5,1.55c0.92,0.32,1.86,0.48,2.8,0.48c2.06,0,3.72-0.36,4.97-1.07c1.25-0.71,2.21-1.68,2.86-2.89h5.29 c-0.33,1.2-0.87,2.31-1.62,3.35c-0.75,1.04-1.7,1.94-2.85,2.7c-1.15,0.76-2.48,1.36-3.99,1.79c-1.51,0.43-3.18,0.65-4.99,0.65 c-1.73,0-3.37-0.28-4.91-0.85c-1.54-0.57-2.89-1.41-4.03-2.51c-1.15-1.11-2.05-2.47-2.72-4.09c-0.67-1.62-1-3.48-1-5.58 c0-2.87,0.4-5.49,1.2-7.85c0.8-2.36,1.91-4.38,3.34-6.07c1.43-1.69,3.14-2.99,5.13-3.92c1.99-0.92,4.18-1.39,6.55-1.39 c1.6,0,3.12,0.28,4.55,0.84c1.44,0.56,2.69,1.37,3.77,2.44c1.08,1.07,1.94,2.38,2.57,3.95c0.64,1.56,0.95,3.35,0.95,5.38 C165.12,32.93,165.11,33.29,165.09,33.71z M188.7,51.73l0.9-4.25h-0.46c-1.14,1.48-2.56,2.65-4.28,3.51 c-1.71,0.85-3.57,1.28-5.55,1.28c-1.56,0-3.03-0.29-4.39-0.88c-1.37-0.59-2.57-1.43-3.6-2.53c-1.03-1.1-1.85-2.43-2.44-3.99 s-0.89-3.3-0.89-5.23c0-1.87,0.19-3.66,0.56-5.36c0.38-1.71,0.91-3.29,1.61-4.74c0.69-1.46,1.53-2.77,2.5-3.95 c0.97-1.18,2.05-2.18,3.24-3.01c1.19-0.83,2.47-1.47,3.85-1.91c1.38-0.44,2.82-0.67,4.32-0.67c1.12,0,2.18,0.15,3.19,0.46 c1.01,0.31,1.93,0.74,2.75,1.29c0.82,0.55,1.52,1.21,2.11,1.99c0.59,0.78,1.02,1.63,1.29,2.56h0.46l3.85-18.13h5.06l-9.25,43.54 H188.7z M238.79,67.81h-11.2l-7.32-16.07h-0.92L205.8,67.81h-11.13l21.12-25.02L206,20.66h11.41l6.51,15.24h0.61l12.31-15.24 h11.28L227.96,43.9L238.79,67.81z"></path> </g> <g> <path class="st0" d="M55.68,20.26h-5.32l-1.82,10.97h5.34c4.14,0,6.26-2.36,6.77-5.52C61.18,22.52,59.86,20.26,55.68,20.26z"></path> <path class="st0" d="M28.85,20.11c-4.97,0-9.34,3.86-10.47,10.82c-1.14,6.71,1.81,10.27,6.49,10.27c4.97,0,9.31-3.84,10.45-10.8 C36.45,23.7,33.55,20.11,28.85,20.11z"></path> <path class="st0" d="M9.2,8.27L0,52.2h120.58l9.2-43.93H9.2z M39.45,30.93c-1.49,8.85-7.58,14.14-14.71,14.14 c-7.41,0-11.99-5.56-10.48-14.66c1.48-8.85,7.59-14.17,14.77-14.17C36.38,16.24,40.96,21.82,39.45,30.93z M64.93,25.71 c-0.86,5.16-4.73,9.11-11.23,9.11h-5.75l-1.64,9.86h-4.23l4.66-28.06h10C63.23,16.63,65.78,20.53,64.93,25.71z M87.94,20.27H74.61 l-1.42,8.55h11.59l-0.74,3.63H72.58l-1.42,8.59h12.91l-0.77,3.64H66.32l4.66-28.06h17.73L87.94,20.27z M111.86,44.68h-3.89 L97.89,24.11h-0.25l-4.2,20.58h-4.23l5.92-28.06h3.92l10,20.6h0.26l4.28-20.6h4.19L111.86,44.68z"></path> </g> <g> <g> <g> <g> <path class="st0" d="M265.39,20.38c-0.55,0-1.07-0.1-1.55-0.31c-0.48-0.21-0.91-0.49-1.27-0.86c-0.37-0.37-0.65-0.79-0.86-1.27 s-0.31-1-0.31-1.55c0-0.55,0.1-1.07,0.31-1.55c0.21-0.48,0.49-0.91,0.86-1.27c0.37-0.37,0.79-0.65,1.27-0.86 c0.48-0.21,1-0.31,1.55-0.31c0.55,0,1.07,0.1,1.55,0.31c0.48,0.21,0.91,0.49,1.27,0.86c0.37,0.37,0.65,0.79,0.86,1.27 c0.21,0.48,0.31,1,0.31,1.55c0,0.55-0.1,1.07-0.31,1.55s-0.49,0.91-0.86,1.27c-0.37,0.37-0.79,0.65-1.27,0.86 C266.46,20.27,265.94,20.38,265.39,20.38z M265.39,19.63c0.6,0,1.14-0.15,1.64-0.44c0.49-0.29,0.88-0.69,1.18-1.18 c0.29-0.49,0.44-1.04,0.44-1.64c0-0.6-0.15-1.15-0.44-1.64c-0.29-0.49-0.69-0.88-1.18-1.18c-0.49-0.29-1.04-0.44-1.64-0.44 s-1.14,0.15-1.64,0.44c-0.49,0.29-0.88,0.69-1.18,1.18c-0.29,0.49-0.44,1.04-0.44,1.64c0,0.6,0.15,1.15,0.44,1.64 c0.29,0.49,0.69,0.88,1.18,1.18C264.24,19.49,264.79,19.63,265.39,19.63z M264.03,18.18v-3.69h1.77c0.19,0,0.37,0.04,0.54,0.13 c0.18,0.09,0.32,0.22,0.43,0.39c0.12,0.17,0.17,0.38,0.17,0.63s-0.06,0.47-0.18,0.65c-0.12,0.18-0.27,0.32-0.45,0.42 c-0.18,0.1-0.37,0.14-0.56,0.14h-1.37v-0.5h1.2c0.17,0,0.32-0.06,0.46-0.18c0.14-0.12,0.2-0.3,0.2-0.52 c0-0.23-0.07-0.4-0.2-0.5c-0.13-0.1-0.28-0.15-0.44-0.15h-0.93v3.18H264.03z M266.18,16.46l0.92,1.71h-0.72l-0.89-1.71H266.18z "></path> </g> </g> </g> </g> </g> </svg> 